<?xml version="1.0" encoding="utf-8"?>
<!-- Generator: Adobe Illustrator 24.0.0, SVG Export Plug-In . SVG Version: 6.00 Build 0)  -->
<svg version="1.1" id="Layer_1" xmlns="http://www.w3.org/2000/svg" xmlns:xlink="http://www.w3.org/1999/xlink" x="0px" y="0px"
	 viewBox="0 0 110 110" style="enable-background:new 0 0 110 110;" xml:space="preserve" width="110px" height="110px">
<g id="Layer_2_1_" style="display:none;">
	<rect x="-330.6" y="-217.2" style="display:inline;fill:#233148;" width="1139.2" height="843.8"/>
</g>
<g id="Layer_1_1_">
	<g id="icon_01">
		<path style="fill:none;stroke:#1F65D9;stroke-width:6;stroke-miterlimit:10;" d="M102.6,75.9c-2.3,5.2-5.5,10-9.3,14.2"/>
		<path style="fill:none;stroke:#1F65D9;stroke-width:6;stroke-miterlimit:10;" d="M43.8,4.2C47.4,3.4,51.2,3,55,3
			c28.7,0,52,23.3,52,52c0,2.6-0.2,5.2-0.6,7.6"/>
		<path style="fill:none;stroke:#1F65D9;stroke-width:6;stroke-miterlimit:10;" d="M11.3,26.7c1.1-1.7,2.3-3.3,3.6-4.9"/>
		<path style="fill:none;stroke:#1F65D9;stroke-width:6;stroke-miterlimit:10;" d="M70.2,104.7c-4.8,1.5-9.9,2.3-15.2,2.3
			C26.3,107,3,83.7,3,55c0-5.4,0.8-10.6,2.3-15.5"/>
		<path style="fill:none;stroke:#1F65D9;stroke-width:6;stroke-miterlimit:10;" d="M17.7,55c0-20.6,16.7-37.3,37.3-37.3
			c6.8,0,13.2,1.8,18.7,5"/>
		<path style="fill:none;stroke:#1F65D9;stroke-width:6;stroke-miterlimit:10;" d="M29.1,81.9c-1.9-1.8-3.6-3.8-5-6"/>
		<path style="fill:none;stroke:#1F65D9;stroke-width:6;stroke-miterlimit:10;" d="M92.3,55c0,20.6-16.7,37.3-37.3,37.3
			c-6.8,0-13.2-1.8-18.7-5"/>
		<path style="fill:none;stroke:#1F65D9;stroke-width:6;stroke-miterlimit:10;" d="M80.9,28.1c1.9,1.8,3.6,3.8,5,6"/>
		<polygon style="fill:none;stroke:#1F65D9;stroke-width:6;stroke-miterlimit:10;" points="71.5,45.4 55,35.8 38.5,45.4 38.5,64.6 
			55,74.2 71.5,64.6 		"/>
	</g>
</g>
</svg>
