<?xml version="1.0" encoding="UTF-8"?><!DOCTYPE svg PUBLIC "-//W3C//DTD SVG 1.1//EN" "http://www.w3.org/Graphics/SVG/1.1/DTD/svg11.dtd"><svg xmlns="http://www.w3.org/2000/svg" xmlns:xlink="http://www.w3.org/1999/xlink"><symbol id="icon-degital-identify" viewBox="0 0 110 110">
    <g fill="none" stroke="#1f65d9" stroke-width="6" stroke-miterlimit="10">
        <path d="M102.6 75.9c-2.3 5.2-5.5 10-9.3 14.2"/>
        <path d="M43.8 4.2C47.4 3.4 51.2 3 55 3c28.7 0 52 23.3 52 52 0 2.6-.2 5.2-.6 7.6"/>
        <path d="M11.3 26.7c1.1-1.7 2.3-3.3 3.6-4.9"/>
        <path d="M70.2 104.7c-4.8 1.5-9.9 2.3-15.2 2.3-28.7 0-52-23.3-52-52 0-5.4.8-10.6 2.3-15.5"/>
        <path d="M17.7 55c0-20.6 16.7-37.3 37.3-37.3 6.8 0 13.2 1.8 18.7 5"/>
        <path d="M29.1 81.9c-1.9-1.8-3.6-3.8-5-6"/>
        <path d="M92.3 55c0 20.6-16.7 37.3-37.3 37.3-6.8 0-13.2-1.8-18.7-5"/>
        <path d="M80.9 28.1c1.9 1.8 3.6 3.8 5 6"/>
        <path d="M71.5 45.4L55 35.8l-16.5 9.6v19.2L55 74.2l16.5-9.6z"/>
    </g>
</symbol><symbol id="icon-search-engine" viewBox="0 0 110 107">
    <g fill="none" stroke="#1f65d9" stroke-width="6" stroke-miterlimit="10">
        <path d="M30.3 61.3C25.4 47.9 32.3 33 45.8 28c4.4-1.6 9-2 13.4-1.2"/>
        <path d="M44.2 76.1c-1.7-.7-3.2-1.6-4.7-2.7"/>
        <path d="M79 43.5c4.9 13.4-2 28.3-15.5 33.3-4.4 1.6-9 2-13.4 1.2"/>
        <path d="M65.1 28.7c1.7.7 3.2 1.6 4.7 2.7"/>
        <path d="M88 12.4L36.7 3.3l-33.3 40 18 49.1 51.2 9.2 33.3-40.1z"/>
        <path d="M73.2 70.5l34.3 34.4"/>
    </g>
</symbol><symbol id="icon-trust-score" viewBox="0 0 110 111">
    <g fill="none" stroke="#1f65d9" stroke-width="6" stroke-miterlimit="10">
        <path d="M3 91.3V66.1h22.4"/>
        <path d="M25.4 74.7v32.4H3"/>
        <path d="M42.5 68.5V3h22.4v104.1H42.5"/>
        <path d="M42.5 81.3v-6.6"/>
        <path d="M105.5 90v17.1H83.1v-8.5"/>
        <path d="M83.1 91.3v-52h22.4v37.2"/>
    </g>
</symbol><symbol id="icon-user-friendly" viewBox="0 0 110 111">
    <g fill="none" stroke="#1f65d9" stroke-width="6" stroke-miterlimit="10">
        <path d="M82.2 67.8C74 83.6 54.5 89.7 38.7 81.5c-5.2-2.7-9.4-6.7-12.3-11.3"/>
        <path d="M37.7 37.4V44"/>
        <path d="M67.6 37.4V44"/>
        <path d="M19 93.3c-4.5-4.1-8.2-9-11-14.4"/>
        <path d="M106.3 56.2c-.6 28.2-23.7 50.9-52 50.9-7.4 0-14.5-1.6-20.9-4.4"/>
        <path d="M92.2 19.4c1.6 1.7 3.1 3.5 4.4 5.4"/>
        <path d="M74.5 7.1c2.7 1.1 5.2 2.5 7.6 4"/>
        <path d="M3 46.3C7.1 21.7 28.5 3 54.3 3c4.6 0 9.1.6 13.3 1.7"/>
    </g>
</symbol></svg>