<?xml version="1.0" encoding="utf-8"?>
<!-- Generator: Adobe Illustrator 24.0.0, SVG Export Plug-In . SVG Version: 6.00 Build 0)  -->
<svg version="1.1" id="Layer_1" xmlns="http://www.w3.org/2000/svg" xmlns:xlink="http://www.w3.org/1999/xlink" x="0px" y="0px"
	 viewBox="0 0 342.4 400" style="enable-background:new 0 0 342.4 400;" xml:space="preserve">
<rect x="52.2" style="fill:#FFFFFF;" width="25.8" height="175.9"/>
<rect y="200" style="fill:#FFFFFF;" width="25.8" height="200"/>
<rect x="166.5" y="200" style="fill:#FFFFFF;" width="25.8" height="200"/>
<rect x="218" style="fill:#FFFFFF;" width="25.8" height="106.1"/>
<rect x="267.3" y="49.3" transform="matrix(6.123234e-17 -1 1 6.123234e-17 168.768 391.6225)" style="fill:#FFFFFF;" width="25.8" height="124.3"/>
<rect x="135.1" y="-82.9" transform="matrix(-1.836970e-16 1 -1 -1.836970e-16 160.8739 -135.1227)" style="fill:#FFFFFF;" width="25.8" height="191.6"/>
<rect x="83.3" y="116.7" transform="matrix(-1.836970e-16 1 -1 -1.836970e-16 309.0219 116.7294)" style="fill:#FFFFFF;" width="25.8" height="192.3"/>
<rect x="81.3" y="293" transform="matrix(-1.836970e-16 1 -1 -1.836970e-16 481.2745 292.9742)" style="fill:#FFFFFF;" width="25.8" height="188.3"/>
<rect x="267.3" y="325" transform="matrix(-1.836970e-16 1 -1 -1.836970e-16 667.3317 106.9171)" style="fill:#FFFFFF;" width="25.8" height="124.3"/>
<rect x="271.1" y="-11.3" transform="matrix(-0.7071 0.7071 -0.7071 -0.7071 526.1365 -101.1638)" style="fill:#FFFFFF;" width="25.8" height="139.4"/>
<rect x="316.6" y="98.6" style="fill:#FFFFFF;" width="25.8" height="301.4"/>
<polygon style="fill:#FFFFFF;" points="155.3,376.1 22.2,376.1 65.6,332.6 85.7,352.7 118.9,319.5 175.4,376 "/>
<circle style="fill:#FFFFFF;" cx="129.1" cy="282.9" r="13.8"/>
</svg>
