<?xml version="1.0" encoding="utf-8"?>
<!-- Generator: Adobe Illustrator 24.0.0, SVG Export Plug-In . SVG Version: 6.00 Build 0)  -->
<svg version="1.1" id="Layer_1" xmlns="http://www.w3.org/2000/svg" xmlns:xlink="http://www.w3.org/1999/xlink" x="0px" y="0px"
	 viewBox="0 0 287.1 335.9" style="enable-background:new 0 0 287.1 335.9;" xml:space="preserve" width="288px" height="336px">
<g>
	<polygon style="fill:#FFFFFF;" points="287.1,195.9 287.1,251.9 287,251.9 239.2,279.9 191.4,307.9 167.5,321.9 143.5,335.9 
		119.6,321.9 95.7,307.9 47.9,279.9 0,251.9 0,195.9 47.9,168 47.9,223.9 95.7,251.9 119.6,265.9 143.5,279.9 167.5,265.9 
		191.4,251.9 239.2,223.9 239.2,167.9 287,195.9 	"/>
	<polygon style="fill:#FFFFFF;" points="287.1,83.9 287.1,139.9 287,139.9 239.2,111.9 191.4,83.9 167.5,69.9 167.5,209.9 
		143.5,223.9 119.6,209.9 119.6,70 95.7,83.9 47.9,111.9 47.9,112 0,139.9 0,83.9 47.9,56 47.9,56 95.7,28 119.6,14 143.5,0 
		167.5,14 191.4,28 239.2,56 287,83.9 	"/>
</g>
</svg>
